<?xml version="1.0" encoding="UTF-8"?>
<svg width="934px" height="287px" viewBox="0 0 934 287" version="1.1" xmlns="http://www.w3.org/2000/svg" xmlns:xlink="http://www.w3.org/1999/xlink">
    <title>Group 2</title>
    <defs>
        <filter x="-0.8%" y="-1.8%" width="101.5%" height="105.0%" filterUnits="objectBoundingBox" id="filter-1">
            <feOffset dx="0" dy="2" in="SourceAlpha" result="shadowOffsetOuter1"></feOffset>
            <feGaussianBlur stdDeviation="2" in="shadowOffsetOuter1" result="shadowBlurOuter1"></feGaussianBlur>
            <feColorMatrix values="0 0 0 0 0   0 0 0 0 0   0 0 0 0 0  0 0 0 0.75 0" type="matrix" in="shadowBlurOuter1" result="shadowMatrixOuter1"></feColorMatrix>
            <feMerge>
                <feMergeNode in="shadowMatrixOuter1"></feMergeNode>
                <feMergeNode in="SourceGraphic"></feMergeNode>
            </feMerge>
        </filter>
    </defs>
    <g id="Page-1" stroke="none" stroke-width="1" fill="none" fill-rule="evenodd">
        <g id="Artboard-6-Copy" transform="translate(-46, -323)">
            <g id="Group" transform="translate(50, 325)" filter="url(#filter-1)">
                <g id="Group-4">
                    <g id="Group-3">
                        <path d="M139.956705,69.1332241 C101.309264,69.1332241 69.8684265,100.574199 69.8684265,139.219558 C69.8684265,177.864306 101.309264,209.305281 139.956705,209.305281 C178.600484,209.305281 210.043152,177.864306 210.043152,139.219558 C210.043152,100.574199 178.600484,69.1332241 139.956705,69.1332241 Z M139.956705,212.858947 C99.3492095,212.858947 66.3157895,179.824255 66.3157895,139.219558 C66.3157895,98.6136396 99.3492095,65.5789474 139.956705,65.5789474 C180.566032,65.5789474 213.595789,98.6136396 213.595789,139.219558 C213.595789,179.824255 180.566032,212.858947 139.956705,212.858947 L139.956705,212.858947 Z" id="Fill-9" fill="#FFFFFF"></path>
                        <path d="M129.536141,68.32 C129.536141,68.32 117.883015,61.9609134 123.716522,43.1026573 C129.551238,24.2456281 127.342838,9.69812856 122.08,0 C122.08,0 147.847678,10.7753576 148.379699,32.0579924 C148.909304,53.3400138 138.853448,58.8390349 144.280543,67.6372233 L129.536141,68.32" id="Fill-10" fill="#FFFFFF"></path>
                        <path d="M106.026442,76.16 C106.026442,76.16 92.7510744,74.2509806 91.8724584,54.6855066 C90.9950669,35.1206404 83.9238918,22.3385367 75.6,15.12 C75.6,15.12 103.830208,16.2844958 111.596316,35.9131783 C119.367935,55.5448996 111.665504,64.1254588 119.84,70.4469205 L106.026442,76.16" id="Fill-11" fill="#FFFFFF"></path>
                        <path d="M86.4581824,91.1359239 C86.4581824,91.1359239 73.357806,93.8402817 65.8112416,75.8158732 C58.2634559,57.7902535 47.2443848,48.2144647 36.96,44.2690702 C36.96,44.2690702 63.8209322,35.8083369 77.8459262,51.5620539 C91.8800808,67.3151652 87.6044882,77.957555 97.44,81.1119325 L86.4581824,91.1359239" id="Fill-12" fill="#FFFFFF"></path>
                        <path d="M73.223874,112.540572 C73.223874,112.540572 61.8630605,119.537787 48.5758481,105.135612 C35.2898554,90.7316164 21.6483417,85.461862 10.64,85.2416063 C10.64,85.2416063 32.9298796,68.1508555 51.5163657,78.2116266 C70.1107794,88.2766451 69.7644057,99.7445043 80.08,99.3713438 L73.223874,112.540572" id="Fill-13" fill="#FFFFFF"></path>
                        <path d="M68.089957,137.611218 C68.089957,137.611218 59.8299497,148.243126 42.4203678,139.069083 C25.0126124,129.88948 10.4069029,129.576904 0,133.179558 C0,133.179558 15.0471444,109.103176 35.9425395,112.29071 C56.8379347,115.477008 60.450394,126.568514 70,122.637222 L68.089957,137.611218" id="Fill-14" fill="#FFFFFF"></path>
                        <path d="M72.24,161.754052 C72.24,161.754052 68.0605815,174.388346 48.5958234,171.85481 C29.1286284,169.316419 15.2896356,174.004734 6.72,180.88 C6.72,180.88 12.7490853,153.51915 33.4707152,149.340091 C54.1941727,145.155569 61.3290371,154.166191 68.9835872,147.28 L72.24,161.754052" id="Fill-15" fill="#FFFFFF"></path>
                        <path d="M83.9993136,183.950438 C83.9993136,183.950438 84.4090364,197.351367 65.2076321,201.636264 C45.9982898,205.915043 34.5816182,215.106925 28.8803044,224.56 C28.8803044,224.56 25.1408972,196.580025 43.2157165,185.507804 C61.2972526,174.430689 71.1159444,180.511511 75.9562907,171.36 L83.9993136,183.950438" id="Fill-16" fill="#FFFFFF"></path>
                        <path d="M102.34716,200.511907 C102.34716,200.511907 107.290259,212.851459 90.7698539,223.36111 C74.236061,233.866519 66.6677584,246.301838 64.5452015,257.04 C64.5452015,257.04 51.5268934,232.255431 64.6833381,215.808151 C77.8458681,199.354809 89.1146491,201.684159 90.5307012,191.52 L102.34716,200.511907" id="Fill-17" fill="#FFFFFF"></path>
                        <path d="M126.172572,209.429064 C126.172572,209.429064 135.070752,219.440232 123.132548,235.095728 C111.181542,250.75306 108.335978,265.160451 110.036733,276.08 C110.036733,276.08 89.2521635,257.036438 95.9808143,236.901472 C102.711903,216.762222 114.120984,215.094816 111.95694,204.96 L126.172572,209.429064" id="Fill-18" fill="#FFFFFF"></path>
                        <path d="M151.015147,210 C151.015147,210 162.672224,216.366719 156.841271,235.217824 C151.003071,254.073838 153.213001,268.622394 158.48,278.32 C158.48,278.32 132.709563,267.540929 132.180026,246.261894 C131.654111,224.978566 141.708687,219.482295 136.272622,210.68458 L151.015147,210" id="Fill-19" fill="#FFFFFF"></path>
                        <path d="M174.526063,202.16 C174.526063,202.16 187.808775,204.075667 188.690208,223.634066 C189.5594,243.198542 196.62923,255.982215 204.96,263.2 C204.96,263.2 176.729646,262.033704 168.962015,242.404805 C161.198667,222.771043 168.900804,214.19187 160.72,207.874789 L174.526063,202.16" id="Fill-20" fill="#FFFFFF"></path>
                        <path d="M193.538601,187.183592 C193.538601,187.183592 206.648198,184.483351 214.189117,202.501915 C221.730035,220.52896 232.751378,230.108818 243.04,234.051363 C243.04,234.051363 216.179675,242.510664 202.148071,226.75926 C188.122572,210.996953 192.396777,200.355291 182.56,197.20925 L193.538601,187.183592" id="Fill-21" fill="#FFFFFF"></path>
                        <path d="M206.767657,165.220468 C206.767657,165.220468 218.139768,158.222278 231.42654,172.619751 C244.707215,187.030573 258.341553,192.302425 269.36,192.517231 C269.36,192.517231 247.067004,209.607668 228.475279,199.550008 C209.889652,189.477178 210.23112,178.006894 199.92,178.389783 L206.767657,165.220468" id="Fill-22" fill="#FFFFFF"></path>
                        <path d="M211.905549,140.711969 C211.905549,140.711969 220.179162,130.078042 237.584797,139.247372 C254.984345,148.428439 269.589494,148.750267 280,145.136647 C280,145.136647 264.950426,169.209537 244.062446,166.030786 C223.156201,162.835975 219.546008,151.742469 210,155.684712 L211.905549,140.711969" id="Fill-23" fill="#FFFFFF"></path>
                        <path d="M208.32,116.00831 C208.32,116.00831 212.505238,103.371599 231.969339,105.902582 C251.433439,108.444487 265.268485,103.762381 273.84,96.88 C273.84,96.88 267.80887,124.22991 247.089808,128.419897 C226.358561,132.594108 219.218678,123.585483 211.573155,130.48 L208.32,116.00831" id="Fill-24" fill="#FFFFFF"></path>
                        <path d="M196.000683,94.3705096 C196.000683,94.3705096 195.591576,80.9676103 214.795171,76.6791718 C234.004871,72.4072461 245.423225,63.2212298 251.120189,53.76 C251.120189,53.76 254.857105,81.7333156 236.783134,92.8140242 C218.69695,103.884336 208.872282,97.8033398 204.048485,106.96 L196.000683,94.3705096" id="Fill-25" fill="#FFFFFF"></path>
                        <path d="M177.651864,77.2492572 C177.651864,77.2492572 172.710711,64.9076674 189.238017,54.3957406 C205.771408,43.8947228 213.335267,31.4658618 215.458989,20.72 C215.458989,20.72 228.46907,45.5001476 215.31903,61.9531766 C202.14465,78.4025692 190.881011,76.0747335 189.475338,86.24 L177.651864,77.2492572" id="Fill-26" fill="#FFFFFF"></path>
                        <path d="M154.388313,68.8949163 C154.388313,68.8949163 145.486952,58.881377 157.430612,43.2214501 C169.374271,27.5688682 172.226998,13.1673666 170.526334,2.24 C170.526334,2.24 191.300036,21.2810266 184.582718,41.4195027 C177.841018,61.5610393 166.436816,63.2295545 168.606229,73.36 L154.388313,68.8949163" id="Fill-27" fill="#FFFFFF"></path>
                        <text id="DV" font-family="AquireRegular, Aquire" font-size="74" font-weight="normal" fill="#9F6B08">
                            <tspan x="85.3421053" y="166.078947">DV</tspan>
                        </text>
                    </g>
                    <text id="Dev-Vaani" font-family="BanglaMN-Bold, Bangla MN" font-size="110" font-weight="bold" fill="#9F6B08">
                        <tspan x="316" y="187">Dev Vaani</tspan>
                    </text>
                </g>
            </g>
        </g>
    </g>
</svg>